<?xml version="1.0" encoding="UTF-8"?>
<svg xmlns="http://www.w3.org/2000/svg" xmlns:xlink="http://www.w3.org/1999/xlink" id="ecurHj8FqlN1" viewBox="87 0 60 60" shape-rendering="geometricPrecision" text-rendering="geometricPrecision" style="background-color:transparent">
  <style>
#ecurHj8FqlN28 {animation: ecurHj8FqlN28_s_do 3500ms linear 1 normal forwards}@keyframes ecurHj8FqlN28_s_do { 0% {stroke-dashoffset: 156.86} 25.714286% {stroke-dashoffset: 156.86} 28.571429% {stroke-dashoffset: 130} 34.285714% {stroke-dashoffset: 100} 40% {stroke-dashoffset: 60} 42.857143% {stroke-dashoffset: 40} 45.714286% {stroke-dashoffset: 0} 57.142857% {stroke-dashoffset: 0} 100% {stroke-dashoffset: 0}} #ecurHj8FqlN34 {animation: ecurHj8FqlN34_s_do 3500ms linear 1 normal forwards}@keyframes ecurHj8FqlN34_s_do { 0% {stroke-dashoffset: 156.93} 20% {stroke-dashoffset: 156.93} 22.857143% {stroke-dashoffset: 130} 28.571429% {stroke-dashoffset: 99} 37.142857% {stroke-dashoffset: 40} 40% {stroke-dashoffset: 19} 42.857143% {stroke-dashoffset: 0} 100% {stroke-dashoffset: 0}} #ecurHj8FqlN35_to {animation: ecurHj8FqlN35_to__to 3500ms linear 1 normal forwards}@keyframes ecurHj8FqlN35_to__to { 0% {offset-distance: 0%} 22.857143% {offset-distance: 0%} 28.571429% {offset-distance: 9.535104%} 31.428571% {offset-distance: 12.615285%} 37.142857% {offset-distance: 23.460157%} 42.857143% {offset-distance: 34.611614%} 48.571429% {offset-distance: 45.515151%} 57.142857% {offset-distance: 56.354565%} 62.857143% {offset-distance: 67.105592%} 68.571429% {offset-distance: 78.257049%} 80% {offset-distance: 89.160586%} 97.142857% {offset-distance: 100%} 100% {offset-distance: 100%}} #ecurHj8FqlN35_ts {animation: ecurHj8FqlN35_ts__ts 3500ms linear 1 normal forwards}@keyframes ecurHj8FqlN35_ts__ts { 0% {transform: scale(0,0)} 22.857143% {transform: scale(0,0)} 28.571429% {transform: scale(0.533333,0.533333)} 31.428571% {transform: scale(0.8,0.8)} 37.142857% {transform: scale(1,1)} 42.857143% {transform: scale(0.8,0.8)} 48.571429% {transform: scale(0,0)} 57.142857% {transform: scale(0.8,0.8)} 62.857143% {transform: scale(1,1)} 68.571429% {transform: scale(0.8,0.8)} 80% {transform: scale(0,0)} 97.142857% {transform: scale(0.8,0.8)} 100% {transform: scale(0.8,0.8)}} #ecurHj8FqlN36_to {animation: ecurHj8FqlN36_to__to 3500ms linear 1 normal forwards}@keyframes ecurHj8FqlN36_to__to { 0% {offset-distance: 0%} 17.142857% {offset-distance: 0%} 25.714286% {offset-distance: 10.755186%} 28.571429% {offset-distance: 15.988505%} 31.428571% {offset-distance: 21.221837%} 37.142857% {offset-distance: 31.977023%} 42.857143% {offset-distance: 42.73221%} 51.428571% {offset-distance: 53.306855%} 57.142857% {offset-distance: 57.608889%;animation-timing-function: cubic-bezier(0.42,0,0.58,1)} 62.857143% {offset-distance: 74.368134%} 68.571429% {offset-distance: 85.12332%} 80% {offset-distance: 95.697966%} 91.428571% {offset-distance: 100%} 100% {offset-distance: 100%}} #ecurHj8FqlN36_ts {animation: ecurHj8FqlN36_ts__ts 3500ms linear 1 normal forwards}@keyframes ecurHj8FqlN36_ts__ts { 0% {transform: scale(0,0)} 17.142857% {transform: scale(0,0)} 25.714286% {transform: scale(0.8,0.8)} 28.571429% {transform: scale(0.9,0.9)} 31.428571% {transform: scale(1,1)} 37.142857% {transform: scale(0.8,0.8)} 42.857143% {transform: scale(0,0)} 51.428571% {transform: scale(0.8,0.8)} 57.142857% {transform: scale(1,1);animation-timing-function: cubic-bezier(0.42,0,0.58,1)} 62.857143% {transform: scale(0.8,0.8)} 68.571429% {transform: scale(0,0)} 80% {transform: scale(0.8,0.8)} 91.428571% {transform: scale(1,1)} 100% {transform: scale(1,1)}}
</style>
  <g display="none" mask="url(#ecurHj8FqlN12)">
    <g>
      <path d="M0,38v-16.6c2.3.1,7.5-.4,9.6.7c3.1,1.2,4.7,4.4,4.6,7.6c0,3.4-1.6,6.5-4.8,7.7-2,1-7.2.5-9.4.6Zm11-8.3c.1-2.9-1.9-5.6-4.9-5.5c0,0-2.8,0-2.8,0v10.9h2.8c3.1.1,5-2.6,4.9-5.5v.1Z" fill="#262262"></path>
      <rect width="11.3" height="2.8" rx="0" ry="0" transform="translate(16.7 21.4)" fill="#949599"></rect>
      <polygon points="20,35.2 20,30.8 27,30.8 27,28.2 16.7,28.2 16.7,38 28.3,38 28.3,35.2 20,35.2" fill="#262262"></polygon>
      <rect width="11.3" height="2.8" rx="0" ry="0" transform="translate(45.3 21.4)" fill="#949599"></rect>
      <polygon points="48.5,35.2 48.5,30.8 55.5,30.8 55.5,28.2 45.3,28.2 45.3,38 56.8,38 56.8,35.2 48.5,35.2" fill="#262262"></polygon>
      <path d="M43.2,24.2h-5.3v13.8h-3.2v-13.8h-5.3v-2.8h13.8v2.8Z" fill="#262262"></path>
      <path d="M58,29.6c-.2-7.9,10.6-11.6,14.6-4.7l-2.5,1.7c-1-2.3-4.1-3.1-6.2-2-1.8.9-2.7,3.1-2.7,5-.2,5.2,6.4,8,9,3.1l2.6,1.5c-1.1,2.6-4.2,3.8-6.8,3.9-4.5,0-8.1-4.2-8-8.6v.1Z" fill="#262262"></path>
      <path d="M87.3,24.2h-5.3v13.8h-3.2v-13.8h-5.3v-2.8h13.8v2.8Z" fill="#262262"></path>
    </g>
    <mask id="ecurHj8FqlN12" x="-150%" y="-150%" height="400%" width="400%">
      <rect width="90.9" height="26.2" rx="0" ry="0" transform="matrix(1.002201 0 0 1-.100035 15.4)" fill="#fff"></rect>
    </mask>
  </g>
  <g display="none" mask="url(#ecurHj8FqlN20)">
    <g>
      <path d="M97.5,38v-16.6h3.2v16.6h-3.2Z" fill="#949599"></path>
      <path d="M111.2,38.1c-5.8.2-9.7-6.5-7.5-11.6c2.7-7,12.5-6.9,15,.1c2.2,5.2-1.8,11.6-7.5,11.5Zm-4.8-8.4c0,7.4,9.6,7.4,9.7,0c0-7.4-9.6-7.4-9.7,0Z" fill="#949599"></path>
      <path d="M125.1,27.3v10.6h-3.2v-16.6h2.5l8.7,10.9v-10.9h3.2v16.6h-2.6l-8.5-10.6h-.1Z" fill="#949599"></path>
      <path d="M114.1,29.7c0,3.8-5.7,3.8-5.7,0s5.7-3.8,5.7,0Z" fill="#262262"></path>
    </g>
    <mask id="ecurHj8FqlN20" x="-150%" y="-150%" height="400%" width="400%">
      <rect width="59.1" height="26.2" rx="0" ry="0" transform="matrix(-.976667 0 0-1 152.12097 41.6)" fill="#fff"></rect>
    </mask>
  </g>
  <g mask="url(#ecurHj8FqlN27)">
    <g>
      <path d="M137.7,20c1.5-3.2,7.1-12.3,4.7-15.4-4.5-2.9-19.6,8.6-23.8,11.2c4-4.3,19.1-17.4,25.1-12.6c0,0,.1.1,0,0c3.6,4.5-3.2,13.3-6,16.7v.1Z" fill="#262262"></path>
      <path d="M96.2,40.1c-1.5,3.1-7.1,12.1-4.7,15.4c0,0,0,0,0,0c4.3,3.2,19.8-8.5,23.8-11.1-5.4,5.4-13.4,12.4-21.5,13.6-1.7.2-3.9-.6-4.5-2.4-1.3-5.2,3.8-11.8,6.8-15.5h.1Z" fill="#262262"></path>
    </g>
    <mask id="ecurHj8FqlN27" x="-150%" y="-150%" height="400%" width="400%">
      <path id="ecurHj8FqlN28" d="M110.8,22.7c14.3-14,28.5-22.4,32.1-18.8s-5.1,18.3-19.5,32.8C109,51.1,94.3,59.9,90.6,56.2s4.8-17.8,18.8-32" fill="none" stroke="#fff" stroke-width="5" stroke-miterlimit="10" stroke-dashoffset="156.86" stroke-dasharray="156.86"></path>
    </mask>
  </g>
  <g mask="url(#ecurHj8FqlN33)">
    <g>
      <path d="M137.3,39.5c2.8,3.5,10.1,12.7,6.4,17.3c0,0-.1.1,0,0-6.6,5.5-25.6-11.7-29.8-16.8c11.1,8.8,41.9,31.4,23.4-.6v.1Z" fill="#949599"></path>
      <path d="M96.2,20c-2.7-3.4-9.4-12-6.1-16.5c1-1.2,2.7-1.4,4.1-1.3c9.3,1.6,19.4,10.8,25.6,17.5-5.3-3.9-21.6-17.4-28-15.3c0,0-.3.2-.3.3c0,0,0,0,0,0-2.5,3.4,3.2,12.4,4.7,15.4v-.1Z" fill="#949599"></path>
    </g>
    <mask id="ecurHj8FqlN33" x="-150%" y="-150%" height="400%" width="400%">
      <path id="ecurHj8FqlN34" d="M124.1,24.2c14,14.2,22.4,28.4,18.8,32s-18.3-5.1-32.8-19.5C95.7,22.3,86.9,7.6,90.6,3.9s17.9,4.8,32.1,18.9" fill="none" stroke="#fff" stroke-width="5" stroke-miterlimit="10" stroke-dashoffset="156.93" stroke-dasharray="156.93"></path>
    </mask>
  </g>
  <g id="ecurHj8FqlN35_to" style="offset-path:path('M106.294319,27.533459C107.565636,26.160425,126.191563,9.265468,132.383194,5.881476Q137.46893,3.1018,142.966226,3.86018C144.774445,5.668399,130.634778,29.343815,123.379369,36.599224C108.92997,51.048623,94.2722,59.817958,90.640325,56.186082C87.349225,52.894983,108.871406,24.802814,110.227182,23.447038C118.177829,15.496391,141.332756,2.22671,142.966226,3.86018Q130.634778,29.343815,123.379369,36.599224C108.92997,51.048623,94.2722,59.817958,90.640325,56.186082C87.349225,52.894983,108.871406,24.802814,110.227182,23.447038C118.177829,15.496391,141.332756,2.22671,142.966226,3.86018');offset-rotate:0deg">
    <g id="ecurHj8FqlN35_ts" transform="scale(0,0)">
      <path d="M146,9.9c0,3.7-5.6,3.7-5.7,0c0-3.7,5.6-3.7,5.7,0Z" transform="translate(-143.150002,-9.9)" fill="#262262"></path>
    </g>
  </g>
  <g id="ecurHj8FqlN36_to" style="offset-path:path('M123.379369,23.447038C137.828768,37.896437,146.598102,52.554207,142.966226,56.186082C141.835853,57.316456,133.78962,53.091077,125.774193,48.020153C119.404066,43.990313,113.051501,39.423543,110.227182,36.599224C95.777783,22.149825,87.008449,7.492056,90.640325,3.86018C94.2722,0.228305,108.92997,8.997639,123.379369,23.447038Q146.598102,52.554207,142.966226,56.186082C140.936157,58.216152,135.461212,56.371648,128.498184,51.822739Q87.008449,7.492056,90.640325,3.86018C94.2722,0.228305,108.92997,8.997639,123.379369,23.447038Q146.598102,52.554207,142.966226,56.186082C140.936157,58.216152,135.461212,56.371648,128.498184,51.822739');offset-rotate:0deg">
    <g id="ecurHj8FqlN36_ts" transform="scale(0,0)">
      <path d="M130.3,51.2c0,3.7-5.6,3.7-5.7,0c0-3.7,5.6-3.7,5.7,0Z" transform="translate(-127.450005,-51.200001)" fill="#949599"></path>
    </g>
  </g>
</svg>
